<svg width="18" height="18" viewBox="0 0 18 18" fill="none" xmlns="http://www.w3.org/2000/svg">
<path d="M1 8.40754C1 7.83081 1.24896 7.28216 1.68299 6.90238L7.68299 1.65238C8.43704 0.992586 9.56296 0.992588 10.317 1.65238L16.317 6.90238C16.751 7.28216 17 7.83081 17 8.40754V15.5C17 16.6046 16.1046 17.5 15 17.5H13C11.8954 17.5 11 16.6046 11 15.5V13.5C11 12.3954 10.1046 11.5 9 11.5V11.5C7.89543 11.5 7 12.3954 7 13.5V15.5C7 16.6046 6.10457 17.5 5 17.5H3C1.89543 17.5 1 16.6046 1 15.5V8.40754Z" stroke="#09090B" stroke-linejoin="round"/>
</svg>
