<svg width="613" height="103" viewBox="0 0 613 103" fill="none" xmlns="http://www.w3.org/2000/svg">
<path d="M110.46 88.98C105.37 88.98 100.77 88.1 96.64 86.36C92.51 84.61 89.09 82.08 86.39 78.78L97.09 66.1C98.94 68.48 100.85 70.28 102.84 71.5C104.82 72.72 106.9 73.33 109.08 73.33C114.89 73.33 117.8 69.96 117.8 63.23V33.4H93.83V18.25H137.22V62.04C137.22 71.09 134.94 77.84 130.38 82.3C125.82 86.76 119.18 88.98 110.46 88.98Z" fill="black"/>
<path d="M185.16 88.9799C179.68 88.9799 174.59 88.0999 169.9 86.3599C165.21 84.6099 161.17 82.1199 157.76 78.8799C154.36 75.6399 151.7 71.8299 149.79 67.4399C147.87 63.0499 146.92 58.2099 146.92 52.9299C146.92 47.6499 147.88 42.8099 149.79 38.4199C151.7 34.0299 154.38 30.2099 157.81 26.9799C161.24 23.7499 165.32 21.2499 170.04 19.4999C174.76 17.7499 179.93 16.8799 185.54 16.8799C192.08 16.8799 197.92 17.9699 203.08 20.1499C208.24 22.3299 212.49 25.4699 215.86 29.5599L203.38 40.8499C201 38.2699 198.44 36.3399 195.7 35.0499C192.96 33.7599 189.9 33.1199 186.54 33.1199C183.57 33.1199 180.86 33.5799 178.42 34.5099C175.98 35.4399 173.9 36.7699 172.18 38.5199C170.46 40.2699 169.12 42.3499 168.17 44.7599C167.21 47.1699 166.73 49.8999 166.73 52.9299C166.73 55.8399 167.21 58.5099 168.17 60.9499C169.13 63.3899 170.46 65.4899 172.18 67.2399C173.9 68.9899 175.96 70.3499 178.37 71.2999C180.78 72.2599 183.44 72.7399 186.34 72.7399C189.25 72.7399 192.09 72.2599 194.86 71.2999C197.63 70.3399 200.44 68.7099 203.28 66.3999L214.28 80.1699C210.32 83.0099 205.73 85.1899 200.51 86.7099C195.29 88.2199 190.17 88.9799 185.16 88.9799ZM196.95 77.5899V51.4399H214.29V80.1699L196.95 77.5899Z" fill="black"/>
<path d="M226.76 87.59V18.25H242.91L271.64 65.41H263.12L291.06 18.25H307.21L307.41 87.6H289.38L289.18 45.69H292.25L271.35 80.76H262.63L241.13 45.69H244.89V87.6H226.76V87.59Z" fill="black"/>
<path d="M355.85 88.0898C350.7 88.0898 345.93 87.2198 341.54 85.4698C337.15 83.7198 333.32 81.2398 330.05 78.0398C326.78 74.8398 324.26 71.1098 322.47 66.8498C320.69 62.5898 319.8 57.9498 319.8 52.9298C319.8 47.9098 320.69 43.2698 322.47 39.0098C324.25 34.7498 326.78 31.0198 330.05 27.8198C333.32 24.6198 337.15 22.1398 341.54 20.3898C345.93 18.6398 350.7 17.7698 355.85 17.7698C361 17.7698 365.77 18.6498 370.17 20.3898C374.56 22.1398 378.38 24.5998 381.61 27.7698C384.84 30.9398 387.37 34.6498 389.19 38.9098C391.01 43.1698 391.91 47.8398 391.91 52.9298C391.91 58.0198 391 62.6898 389.19 66.9498C387.38 71.2098 384.85 74.9198 381.61 78.0898C378.37 81.2598 374.56 83.7198 370.17 85.4698C365.77 87.2098 361 88.0898 355.85 88.0898ZM355.85 83.4298C360.27 83.4298 364.37 82.6698 368.14 81.1498C371.9 79.6298 375.17 77.4798 377.95 74.7098C380.72 71.9398 382.89 68.6998 384.44 64.9998C385.99 61.2998 386.77 57.2698 386.77 52.9098C386.77 48.4898 385.99 44.4398 384.44 40.7698C382.89 37.0998 380.73 33.8898 377.95 31.1098C375.18 28.3398 371.91 26.1898 368.14 24.6698C364.37 23.1498 360.28 22.3898 355.85 22.3898C351.42 22.3898 347.33 23.1498 343.57 24.6698C339.8 26.1898 336.52 28.3398 333.71 31.1098C330.9 33.8798 328.72 37.0998 327.17 40.7698C325.62 44.4398 324.84 48.4798 324.84 52.9098C324.84 57.2698 325.62 61.2998 327.17 64.9998C328.72 68.6998 330.9 71.9298 333.71 74.7098C336.52 77.4798 339.8 79.6298 343.57 81.1498C347.33 82.6698 351.42 83.4298 355.85 83.4298Z" fill="black"/>
<path d="M426.78 87.59L395.87 18.24H401.42L430.94 84.52H427.87L457.49 18.24H462.74L431.83 87.59H426.78Z" fill="black"/>
<path d="M473.93 87.59V18.25H478.98V87.6H473.93V87.59Z" fill="black"/>
<path d="M508.21 83.04H551.01V87.6H503.16V18.25H549.52V22.81H508.21V83.04ZM507.62 50.15H545.17V54.61H507.62V50.15Z" fill="black"/>
<path d="M587.66 88.0898C582.51 88.0898 577.64 87.2198 573.05 85.4698C568.46 83.7198 564.91 81.4598 562.4 78.6798L564.68 74.9198C567.06 77.3598 570.31 79.4298 574.44 81.1098C578.57 82.7898 582.94 83.6398 587.57 83.6398C592.19 83.6398 595.97 83.0298 598.91 81.8098C601.85 80.5898 604.03 78.9498 605.45 76.9098C606.87 74.8598 607.58 72.5798 607.58 70.0698C607.58 67.0998 606.79 64.7198 605.2 62.9398C603.61 61.1598 601.53 59.7398 598.96 58.6798C596.38 57.6198 593.58 56.7298 590.54 56.0098C587.5 55.2798 584.43 54.5098 581.33 53.6798C578.23 52.8498 575.39 51.7798 572.81 50.4598C570.23 49.1398 568.17 47.3398 566.62 45.0598C565.07 42.7798 564.29 39.8298 564.29 36.1898C564.29 32.8898 565.15 29.8498 566.87 27.0798C568.59 24.3098 571.26 22.0598 574.89 20.3398C578.52 18.6198 583.18 17.7598 588.86 17.7598C592.69 17.7598 596.47 18.3198 600.2 19.4398C603.93 20.5598 607.12 22.0798 609.76 23.9998L607.88 28.0598C604.97 26.0798 601.85 24.6098 598.52 23.6498C595.18 22.6898 591.96 22.2098 588.86 22.2098C584.43 22.2098 580.77 22.8398 577.86 24.0898C574.95 25.3398 572.81 27.0098 571.42 29.0898C570.03 31.1698 569.34 33.4998 569.34 36.0698C569.34 39.0398 570.12 41.4198 571.67 43.1998C573.22 44.9798 575.29 46.3998 577.86 47.4598C580.44 48.5198 583.27 49.4098 586.38 50.1298C589.48 50.8598 592.55 51.6298 595.59 52.4598C598.63 53.2898 601.43 54.3598 604.01 55.6798C606.59 56.9998 608.67 58.7898 610.25 61.0298C611.83 63.2798 612.63 66.1798 612.63 69.7498C612.63 72.9898 611.74 76.0098 609.96 78.8098C608.18 81.6198 605.45 83.8598 601.79 85.5498C598.11 87.2498 593.41 88.0898 587.66 88.0898Z" fill="black"/>
<path d="M37.19 0.909851C37.84 1.09985 38.5 1.26985 39.15 1.47985C40.29 1.85985 40.75 2.55985 40.47 3.42985C40.16 4.37985 39.4 4.68985 38.21 4.32985C33.85 3.01985 29.55 5.15984 28.16 9.33984C27.97 9.90984 27.84 10.4798 27.81 11.0798C27.76 11.9398 27.42 12.6598 26.48 12.8098C25.59 12.9598 25.1 12.4098 24.71 11.6698C23.54 9.38985 21.53 8.34985 18.99 8.64985C16.95 8.89985 15.11 10.6298 14.6 12.8298C14.35 13.9198 14.45 14.9998 14.9 16.0298C15.18 16.6598 15.2 17.2598 14.72 17.7898C14.26 18.2898 13.72 18.4298 13.02 18.2398C11.83 17.9198 11.18 18.3898 10.97 19.5798C10.74 20.8498 10.24 21.2299 8.92 21.1199C7.22 20.9799 5.73 21.8099 5.03 23.2999C4.38 24.6899 4.68 26.5298 5.76 27.6298C6.09001 27.9598 6.42 28.2598 6.97 28.1498C10.11 27.4898 12.93 28.3898 15.53 30.0798C16.23 30.5298 16.64 30.4398 17.24 29.9998C17.66 29.6898 17.68 29.5098 17.47 29.0698C15.03 23.9598 17.73 18.3698 23.23 17.1298C23.71 17.0198 24.21 16.9998 24.71 16.9898C25.69 16.9698 26.37 17.5498 26.42 18.3998C26.47 19.2598 25.77 19.9199 24.75 19.9799C22.34 20.1299 20.49 21.5298 19.83 23.7598C19.41 25.1798 19.54 26.5598 20.27 27.8798C20.46 28.2198 20.6 28.3198 21.03 28.2098C23.99 27.4698 26.65 28.1998 29.09 29.9398C29.39 30.1498 29.61 30.5098 30.08 30.0898C33.58 27.0198 37.47 27.4498 41.03 29.7798C41.86 30.3198 42.34 30.3698 43.19 29.7698C46.87 27.1798 50.84 27.2999 54.8 30.0499C55.38 30.4499 55.75 30.4598 56.33 30.0898C58.97 28.3998 61.8 27.4498 64.98 28.1398C65.57 28.2698 65.81 27.9698 66.05 27.5298C67.89 24.1198 65.66 19.8498 61.79 19.3798C60.4 19.2098 60.05 18.7998 60.09 17.3798C60.14 15.6198 59.13 14.4798 57.4 14.3498C56.13 14.2498 55.81 13.9798 55.51 12.7498C55.09 10.9598 53.54 9.66984 51.75 9.62984C49.92 9.58984 48.37 10.8198 47.88 12.7098C47.5 14.1598 47.08 14.5498 45.99 14.6098C44.12 14.7098 43.33 14.0898 43.56 12.2198C43.74 10.7798 43.33 9.40985 42.68 8.10985C42.15 7.03985 42.35 6.26985 43.21 5.81985C44.05 5.38985 44.82 5.71985 45.37 6.74985C45.75 7.44985 46.03 8.18984 46.24 8.94984C46.56 9.05984 46.64 8.76984 46.79 8.62984C50.39 5.23984 55.9 6.25985 58 10.7198C58.2 11.1398 58.4 11.3598 58.88 11.4998C61.12 12.1698 62.52 13.7098 63.02 15.9898C63.11 16.4098 63.25 16.5598 63.64 16.6998C68.97 18.5698 71.17 23.9298 68.71 28.9598C68.6 29.1898 68.26 29.4698 68.71 29.6898C71.55 31.0298 71.36 33.3998 71 35.9598C70.27 41.1298 69.68 46.3298 69.03 51.5098C68.4 56.5298 67.75 61.5499 67.12 66.5699C66.56 71.0699 66.02 75.5698 65.45 80.0598C64.89 84.5598 64.31 89.0499 63.75 93.5499C63.52 95.3899 63.23 97.2199 63.09 99.0699C62.88 101.7 61.04 102.79 59.08 102.78C43.66 102.73 28.24 102.75 12.82 102.75C10.46 102.75 9.24001 101.68 8.94001 99.2999C8.07001 92.4099 7.22 85.5198 6.35 78.6198C5.31 70.4198 4.26001 62.2198 3.23001 54.0098C2.37001 47.1498 1.5 40.2898 0.680003 33.4298C0.500003 31.8898 1.39 30.8399 2.63 30.1199C3.39 29.6799 3.31 29.3898 2.86 28.7398C0.0700035 24.6498 2.37 19.0999 7.22 18.1599C7.85 18.0399 8.33001 17.8798 8.66001 17.1998C9.13001 16.2098 10.04 15.5998 11.08 15.2698C11.48 15.1398 11.57 14.9798 11.53 14.5798C11.06 10.3598 14.26 5.93985 19.3 5.50985C21.42 5.32985 23.36 5.96985 25.04 7.27985C25.44 7.58985 25.56 7.57985 25.79 7.10985C27.49 3.72985 30.16 1.62985 33.93 0.989845C33.97 0.979845 34 0.899844 34.04 0.839844C35.07 0.909844 36.13 0.909851 37.19 0.909851ZM43.08 60.8998C42.89 69.0498 42.75 75.2798 42.61 81.5098C42.53 84.8898 42.47 88.2698 42.38 91.6498C42.36 92.1998 42.4 92.4799 43.09 92.4599C44.91 92.3999 46.74 92.4099 48.56 92.4599C49.13 92.4699 49.22 92.2198 49.25 91.7798C49.34 90.6898 49.45 89.5998 49.53 88.5098C49.95 83.0898 50.35 77.6798 50.78 72.2598C51.35 65.0998 51.94 57.9298 52.52 50.7698C52.6 49.7398 53.25 49.0498 54.12 49.0998C55 49.1498 55.58 49.8599 55.52 50.9099C55.38 53.1599 55.21 55.3998 55.03 57.6498C54.66 62.3398 54.28 67.0299 53.9 71.7099C53.6 75.4699 53.28 79.2398 52.98 82.9998C52.75 85.9098 52.54 88.8098 52.3 91.7198C52.25 92.2698 52.37 92.4598 52.96 92.4498C55.38 92.4198 57.8 92.4198 60.22 92.4498C60.73 92.4598 60.85 92.2999 60.91 91.7999C61.17 89.4299 61.51 87.0699 61.8 84.7099C62.29 80.7699 62.78 76.8298 63.27 72.8898C63.76 68.9198 64.25 64.9498 64.75 60.9698C65.31 56.4698 65.89 51.9799 66.45 47.4799C67.01 42.9799 67.53 38.4798 68.14 33.9898C68.23 33.3198 68.09 32.9598 67.58 32.5898C64.07 30.0598 60.7 30.7099 57.23 33.1199C56.99 33.2899 56.91 33.4998 56.89 33.7898C56.63 37.1898 56.35 40.5898 56.1 43.9898C56.01 45.1398 55.36 45.8998 54.45 45.8198C53.54 45.7398 53.01 45.0098 53.09 43.8798C53.34 40.5798 53.61 37.2799 53.87 33.9799C53.9 33.5999 54 33.2298 53.58 32.9198C50.72 30.7998 47.95 30.2498 44.88 32.2398C43.98 32.8198 43.61 33.4898 43.59 34.5698C43.44 43.9898 43.23 53.3998 43.08 60.8998ZM28.94 65.1798C28.67 53.1098 28.46 43.4598 28.26 33.8198C28.25 33.3298 28.07 33.0298 27.71 32.7498C24.8 30.4198 21.37 30.4598 18.45 32.8298C18.08 33.1298 18.03 33.4398 18.06 33.8498C18.29 36.8198 18.51 39.7998 18.75 42.7698C19.12 47.4298 19.5 52.0799 19.87 56.7399C20.17 60.4999 20.49 64.2698 20.78 68.0298C21.04 71.2698 21.29 74.4999 21.52 77.7399C21.59 78.6999 20.95 79.3898 20.08 79.4198C19.28 79.4498 18.58 78.8198 18.51 77.9398C18.23 74.5098 17.96 71.0698 17.7 67.6398C17.41 63.9698 17.13 60.3098 16.84 56.6398C16.47 51.9498 16.08 47.2598 15.71 42.5798C15.49 39.7698 15.28 36.9699 15.03 34.1599C15 33.7899 15.04 33.3898 14.63 33.0998C11.17 30.7198 7.8 30.0998 4.36 32.5998C3.87 32.9598 3.68 33.3199 3.76 33.9099C4.14 36.7599 4.49 39.6199 4.85 42.4799C5.42 46.9799 5.98 51.4698 6.54 55.9698C7.1 60.4698 7.65 64.9699 8.21 69.4599C8.71 73.4999 9.23001 77.5299 9.73001 81.5699C10.15 84.9499 10.57 88.3299 10.98 91.7099C11.05 92.2599 11.23 92.4699 11.84 92.4599C14.16 92.4099 16.48 92.4099 18.8 92.4599C19.56 92.4799 19.72 92.2998 19.64 91.5398C19.39 89.1398 19.22 86.7198 19.07 84.3098C19.01 83.4198 19.67 82.7498 20.48 82.7198C21.28 82.6898 21.97 83.3098 22.05 84.1898C22.26 86.6998 22.49 89.2098 22.63 91.7198C22.67 92.3698 22.89 92.4699 23.46 92.4599C25.15 92.4299 26.84 92.4098 28.53 92.4698C29.3 92.4998 29.51 92.2998 29.49 91.5098C29.27 81.9198 29.09 72.3398 28.94 65.1798ZM31.92 62.6398C31.95 62.6398 31.97 62.6398 32 62.6398C32 63.5298 31.98 64.4299 32 65.3199C32.19 74.0699 32.39 82.8098 32.55 91.5598C32.56 92.3298 32.79 92.4799 33.5 92.4599C35.12 92.4099 36.75 92.3999 38.37 92.4599C39.17 92.4899 39.4 92.3199 39.41 91.4599C39.52 83.7699 39.69 76.0898 39.85 68.3998C40.09 57.3298 40.28 46.2698 40.64 35.2098C40.7 33.3598 39.94 32.5498 38.52 31.8298C36.33 30.7198 34.25 30.6198 32.22 32.2098C31.5 32.7698 31.22 33.3898 31.28 34.3198C31.4 36.2398 31.38 38.1598 31.42 40.0798C31.58 47.5998 31.75 55.1198 31.92 62.6398ZM60.43 95.4298C60.07 95.4298 59.71 95.4298 59.36 95.4298C46.13 95.4298 32.9 95.4298 19.67 95.4298C17.22 95.4298 14.76 95.4599 12.31 95.4099C11.55 95.3899 11.42 95.6498 11.54 96.3098C11.69 97.1598 11.85 98.0098 11.89 98.8598C11.92 99.5998 12.21 99.8198 12.92 99.8098C28.27 99.7898 43.63 99.7899 58.98 99.8199C59.73 99.8199 59.98 99.5098 60.05 98.8598C60.16 97.7398 60.3 96.6298 60.43 95.4298Z" fill="#020203"/>
<path d="M44.94 23.3597C44.99 20.5397 47.47 18.1497 50.29 18.1997C51.19 18.2197 51.85 18.7997 51.9 19.6097C51.95 20.4097 51.34 21.0797 50.45 21.1997C48.83 21.4297 48.12 22.1097 47.94 23.6097C47.82 24.5897 47.18 25.2097 46.35 25.1697C45.47 25.1097 44.92 24.4097 44.94 23.3597Z" fill="#030304"/>
<path d="M35.04 12.4498C37.4 12.4998 39.58 14.7498 39.56 17.1098C39.55 17.9998 38.99 18.6798 38.18 18.7798C37.4 18.8698 36.74 18.3098 36.55 17.3998C36.27 16.0298 35.88 15.6198 34.7 15.4398C33.69 15.2798 33.14 14.6898 33.2 13.8298C33.28 12.9398 33.97 12.4298 35.04 12.4498Z" fill="#030304"/>
</svg>
