<svg width="621" height="112" viewBox="0 0 621 112" fill="none" xmlns="http://www.w3.org/2000/svg">
<g filter="url(#filter0_d_81_109)">
<path d="M41.26 0.909912C41.94 1.10991 42.63 1.27991 43.3 1.50991C44.46 1.89991 44.77 2.48991 44.48 3.68991C44.37 4.62991 43.66 4.68991 42.95 4.71991C42.48 4.73991 42.05 4.52991 41.6 4.41991C37.03 3.34991 32.8 6.24991 32.16 10.8999C32.02 11.9299 31.63 12.7399 30.55 13.0499C29.56 13.1199 28.96 12.5799 28.55 11.7499C27.39 9.60991 25.57 8.66991 23.19 8.96991C21.12 9.22991 19.75 10.4599 19.05 12.3899C18.55 13.7699 18.82 15.1399 19.33 16.4799C19.43 16.9199 19.33 17.3199 19.13 17.6999C18.62 18.4899 17.93 18.7399 17 18.5399C16.1 18.3399 15.58 18.6999 15.29 19.5899C14.73 21.3299 14.57 21.4099 12.68 21.3999C9.7 21.3899 8.11 24.4399 9.6 26.9899C10.02 27.7499 10.61 27.9999 11.5 27.8699C14.17 27.4699 16.63 28.1499 18.94 29.4599C19.2 29.6099 19.45 29.7699 19.71 29.9199C20.13 30.1799 20.55 30.3199 20.98 29.9399C21.41 29.5599 21.19 29.1599 21.03 28.7599C19.78 25.6599 20.14 22.7399 22.16 20.1099C23.82 17.9299 26.09 16.7799 28.87 16.8299C29.9 16.8499 30.57 17.4799 30.66 18.3599C30.75 19.1899 30.15 19.9699 29.2 20.2299C28.94 20.2999 28.68 20.3099 28.41 20.3499C25.94 20.7199 24.35 22.2899 23.92 24.7499C23.76 25.6699 24 26.5299 24.31 27.3799C24.5 27.9099 24.88 28.0799 25.41 27.9699C28.14 27.3999 30.6 28.0899 32.88 29.5999C33.44 29.9799 33.9 30.0399 34.49 29.5899C37.67 27.1799 41.03 27.2499 44.35 29.1899C45.58 29.9099 46.42 30.1199 47.77 29.2599C51.28 27.0199 54.91 27.3599 58.36 29.5599C59.26 30.1399 59.93 30.2099 60.87 29.6399C63.32 28.1699 65.96 27.3699 68.86 27.9499C69.61 28.0999 69.86 27.5999 70.08 27.0599C71.28 24.1899 69.68 20.8299 66.69 19.9499C66.31 19.8399 65.91 19.7899 65.52 19.6999C64.41 19.4599 63.93 18.9099 63.87 17.7799C63.75 15.5599 63.37 15.1199 61.18 14.6899C60.2 14.4999 59.58 13.9499 59.31 12.9899C59.16 12.4399 59 11.8999 58.62 11.4599C57.67 10.3499 56.49 9.73991 55.01 10.0499C53.48 10.3699 52.54 11.3899 52.12 12.8999C51.69 14.4399 51.08 14.9399 49.63 14.9499C48.08 14.9599 47.31 14.2799 47.36 12.7199C47.42 10.9399 46.99 9.29991 46.25 7.71991C46.13 6.95991 46.16 6.25991 47.03 5.93991C48.32 5.50991 48.83 5.70991 49.44 6.89991C49.62 7.24991 49.79 7.60991 49.94 7.97991C50.08 8.33991 50.18 8.70991 50.33 9.16991C51.44 8.05991 52.6 7.23991 54.06 6.88991C57.26 6.12991 60.51 7.62991 61.93 10.6099C62.19 11.1499 62.48 11.4699 63.08 11.6499C65.22 12.2999 66.51 13.8199 67.03 15.9699C67.14 16.4399 67.28 16.6699 67.75 16.8299C72.98 18.6299 75.21 24.0999 72.76 29.0599C72.62 29.3399 72.32 29.6199 72.81 29.8599C75.69 31.2099 75.37 33.6399 75.02 36.1699C74.38 40.7699 73.85 45.3799 73.27 49.9799C72.63 55.0399 71.99 60.1099 71.35 65.1699C70.79 69.6799 70.24 74.1799 69.68 78.6899C69.13 83.1299 68.58 87.5699 68.02 92.0099C67.73 94.3399 67.31 96.6699 67.14 99.0099C67 100.91 66.23 102.25 64.51 103.04C48.19 103.04 31.86 103.04 15.54 103.04C13.69 102.32 13 100.87 12.79 98.9699C12.23 93.8999 11.59 88.8299 10.96 83.7699C10.27 78.2099 9.53999 72.6599 8.83999 67.0999C8.27999 62.5899 7.74 58.0899 7.18 53.5799C6.62 49.0699 6.04 44.5699 5.47 40.0699C5.19 37.8699 4.87 35.6699 4.67 33.4599C4.55 32.1099 5.28 31.0899 6.39 30.4199C7.23 29.9199 7.36 29.5899 6.76 28.6799C4.08 24.6099 6.45 19.1899 11.23 18.2699C11.87 18.1499 12.34 17.9699 12.66 17.2999C13.12 16.3399 13.98 15.7199 14.99 15.4099C15.49 15.2599 15.54 15.0399 15.51 14.5799C15.33 11.0199 16.84 8.30991 19.91 6.61991C22.97 4.92991 26.03 5.24991 28.87 7.25991C29.42 7.64991 29.56 7.64991 29.88 7.02991C31.55 3.75991 34.17 1.72991 37.82 1.09991C37.9 1.08991 37.96 0.989909 38.03 0.929909C39.14 0.909909 40.2 0.909912 41.26 0.909912Z" fill="#020203"/>
<path d="M47.06 5.90993C46.58 6.40993 46.34 6.98992 46.45 7.67992C45.92 7.86992 45.49 7.53992 45.04 7.35992C40.4 5.53992 35.2 7.69992 33.21 12.2799C33.05 12.6399 32.93 13.0199 32.68 13.3399C32.37 13.7399 31.95 13.9399 31.46 13.8199C30.98 13.6999 30.48 13.5399 30.51 12.8799C31.42 12.5899 31.76 11.9199 31.87 11.0099C32.49 5.85993 37.25 2.76992 42.22 4.30992C43.17 4.59992 43.9 4.50992 44.47 3.66992C45.51 4.22992 46.36 4.97993 47.06 5.90993Z" fill="#FBC773"/>
<path d="M30.52 12.89C31.52 14 32.31 13.94 32.8 12.65C34.86 7.30996 40.75 4.89996 46.1 7.50996C46.22 7.56996 46.34 7.61996 46.46 7.67996C47.43 9.17996 47.74 10.84 47.64 12.61C47.57 13.94 48.02 14.51 49.12 14.64C50.78 14.83 51.53 14.39 51.84 13.06C52.33 10.96 53.77 9.69996 55.69 9.67996C57.61 9.65996 59.11 10.9 59.6 12.96C59.81 13.86 60.33 14.3 61.26 14.38C63.36 14.57 64.19 15.53 64.16 17.61C64.14 18.84 64.56 19.29 65.86 19.44C69.79 19.9 72.03 24.27 70.1 27.69C69.88 28.08 69.68 28.36 69.11 28.24C66.01 27.56 63.21 28.43 60.61 30.07C59.9 30.52 59.46 30.57 58.73 30.07C54.62 27.24 50.75 27.32 46.7 30.26C46.24 30.6 45.98 30.47 45.6 30.21C43.81 28.96 41.88 28.06 39.64 28.02C37.62 27.99 35.88 28.72 34.37 30.01C33.91 30.4 33.62 30.42 33.12 30.05C30.7 28.28 28.03 27.52 25.07 28.32C24.46 28.49 24.38 28.08 24.22 27.77C22.46 24.41 24.83 20.26 28.63 20.05C29.38 20.01 30.01 19.83 30.34 19.1C30.8 18.06 30.07 17.06 28.84 17.04C25.02 16.98 21.42 20.04 20.78 23.83C20.47 25.67 20.72 27.39 21.5 29.06C21.64 29.35 22.05 29.71 21.49 29.95C21.01 30.16 20.73 30.9 19.96 30.37C18.32 29.22 16.5 28.43 14.51 28.12C13.55 27.97 12.57 27.89 11.64 28.12C10.52 28.41 9.87 28.01 9.42 27.04C9.88 25.19 11.85 23.59 14.07 23.42C15.05 23.35 15.67 23 16.13 22.15C16.59 21.31 17.28 20.68 18.23 20.43C18.79 20.28 18.99 19.94 18.86 19.39C18.72 18.79 18.72 18.21 18.99 17.64C19.11 17.25 19.22 16.87 19.18 16.45C19.04 15.1 19.77 14.08 20.6 13.2C22.49 11.22 24.79 10.36 27.53 11.03C27.99 11.14 28.42 11.28 28.75 11.65C29.13 12.37 29.63 12.92 30.52 12.89Z" fill="#FCD8A0"/>
<path d="M58.52 45.97C59.86 45.59 60.08 45.26 60.18 43.89C60.43 40.55 60.71 37.2 60.96 33.86C60.98 33.57 61.05 33.36 61.3 33.19C64.79 30.75 68.24 30.12 71.74 32.72C72.2 33.06 72.35 33.39 72.27 33.96C71.47 40.24 70.7 46.53 69.9 52.82C69 59.99 68.08 67.17 67.18 74.34C66.44 80.23 65.7 86.12 64.99 92.02C64.93 92.52 64.8 92.68 64.29 92.67C61.87 92.64 59.45 92.64 57.03 92.67C56.5 92.68 56.29 92.59 56.35 91.98C56.68 88.11 56.95 84.23 57.26 80.36C57.63 75.66 58.01 70.96 58.39 66.26C58.76 61.66 59.14 57.06 59.51 52.46C59.56 51.86 59.59 51.27 59.59 50.67C59.6 49.77 58.93 49.45 58.23 49.18C58.01 48.08 57.83 46.99 58.52 45.97Z" fill="#FAF8F9"/>
<path d="M58.52 45.9699C58.42 47.0399 58.32 48.1099 58.23 49.1799C56.93 49.5399 56.69 49.8599 56.59 51.1699C56.16 56.5999 55.7 62.0199 55.26 67.4499C54.9 72.0199 54.56 76.5799 54.2 81.1499C53.92 84.6899 53.63 88.2299 53.37 91.7699C53.32 92.4799 53.07 92.7099 52.34 92.6799C50.62 92.6199 48.89 92.6399 47.17 92.6699C46.63 92.6799 46.43 92.5499 46.44 91.9599C46.62 84.8499 46.77 77.7399 46.93 70.6399C47.02 66.7199 47.13 62.7999 47.21 58.8799C47.38 50.7099 47.54 42.5399 47.67 34.3599C47.68 33.5399 47.96 33.0199 48.62 32.5499C51.8 30.2799 54.67 30.7599 57.66 32.9899C58.15 33.3599 57.98 33.8199 57.94 34.2599C57.7 37.4699 57.46 40.6799 57.17 43.8899C57.06 44.9899 57.45 45.6799 58.52 45.9699Z" fill="#E53F55"/>
<path d="M24.11 79.5799C25.3 79.3099 25.65 78.9199 25.56 77.7399C25.19 72.8099 24.79 67.8799 24.4 62.9499C24.11 59.3099 23.83 55.6699 23.54 52.0299C23.17 47.3299 22.78 42.6299 22.41 37.9299C22.3 36.5699 22.23 35.2099 22.12 33.8599C22.09 33.4699 22.17 33.1999 22.5 32.9199C25.38 30.5299 28.76 30.4599 31.7 32.7599C32.12 33.0899 32.32 33.4299 32.34 33.9999C32.52 43.7399 32.73 53.4699 32.94 63.2099C33.14 72.6799 33.33 82.1499 33.57 91.6199C33.59 92.5399 33.33 92.7199 32.48 92.6899C30.82 92.6199 29.16 92.6599 27.5 92.6799C27 92.6899 26.74 92.6299 26.7 91.9999C26.55 89.5199 26.31 87.0399 26.13 84.5499C26.06 83.4999 25.47 83.0199 24.5 82.8799C23.86 81.8399 24.01 80.7099 24.11 79.5799Z" fill="#E53F55"/>
<path d="M36.01 64.2299C35.76 53.1699 35.55 43.5399 35.32 33.8999C35.31 33.3499 35.47 32.9699 35.88 32.6099C38.05 30.6799 40.23 30.5599 43.01 32.0899C44.23 32.7599 44.75 33.5199 44.71 35.0299C44.24 53.9999 43.86 72.9799 43.47 91.9499C43.46 92.5099 43.32 92.6799 42.76 92.6599C41 92.6199 39.24 92.6099 37.49 92.6599C36.82 92.6799 36.6 92.5099 36.59 91.8099C36.52 87.3599 36.4 82.9099 36.3 78.4499C36.18 73.2399 36.08 68.0299 36.01 64.2299Z" fill="#FAF8F9"/>
<path d="M22.55 92.6198C20.3 92.6298 18.04 92.6198 15.79 92.6698C15.19 92.6798 15.07 92.4198 15.01 91.9298C14.54 88.0498 14.07 84.1598 13.58 80.2798C12.95 75.2098 12.31 70.1498 11.68 65.0898C11.12 60.5798 10.56 56.0798 10 51.5698C9.37 46.4998 8.73 41.4398 8.1 36.3698C8.05 35.9798 8.03 35.5798 7.98 35.1798C7.68 32.8898 7.68 32.8698 9.72 31.8398C11.86 30.7598 14.03 30.7298 16.19 31.8098C15.52 32.6498 15.47 33.5698 15.6 34.6198C17.23 47.6698 18.88 60.7198 20.49 73.7798C21.22 79.6798 21.98 85.5798 22.69 91.4798C22.74 91.8698 22.86 92.2698 22.55 92.6198Z" fill="#EFEDEF"/>
<path d="M40.07 95.6499C47.89 95.6499 55.72 95.6599 63.54 95.6299C64.38 95.6299 64.64 95.7699 64.41 96.6499C64.22 97.3499 64.2 98.0899 64.16 98.8199C64.12 99.6899 63.82 100.07 62.83 100.06C53.98 100.02 45.13 100.04 36.27 100.04C29.94 100.04 23.61 100.03 17.27 100.06C16.4 100.06 15.89 99.9299 15.91 98.8999C15.92 98.1499 15.75 97.3899 15.6 96.6399C15.45 95.8799 15.66 95.6299 16.48 95.6399C24.35 95.6599 32.21 95.6499 40.07 95.6499Z" fill="#E53F55"/>
<path d="M22.55 92.6198C22.16 89.6198 21.75 86.6198 21.38 83.6098C21.02 80.6998 20.71 77.7898 20.35 74.8798C19.99 71.9698 19.57 69.0698 19.21 66.1698C18.91 63.7798 18.66 61.3898 18.36 59.0098C18.06 56.6298 17.73 54.2498 17.43 51.8598C17.13 49.5098 16.86 47.1498 16.57 44.7998C16.27 42.3798 15.95 39.9698 15.65 37.5498C15.48 36.1398 15.3 34.7398 15.19 33.3298C15.14 32.6298 15.37 32.0098 16.18 31.8298C17.12 32.0798 17.88 32.6698 18.69 33.1698C19.07 33.4098 19.07 33.7698 19.1 34.1198C19.52 39.4798 19.93 44.8298 20.35 50.1898C20.78 55.6098 21.23 61.0298 21.67 66.4498C21.97 70.1898 22.26 73.9198 22.54 77.6598C22.63 78.9198 22.92 79.3198 24.09 79.5998C24.48 80.6698 24.25 81.7998 24.49 82.8898C23.43 83.1798 23.02 83.8698 23.13 84.9698C23.34 87.1398 23.48 89.3198 23.68 91.4998C23.8 92.6898 23.82 92.6898 22.55 92.6198Z" fill="#FAF8F9"/>
<path d="M18.96 17.6699C18.96 17.8399 18.93 18.0099 18.97 18.1699C19.3 19.5799 19.26 20.7199 17.45 21.1199C16.72 21.2799 16.38 22.1399 15.99 22.7999C15.71 23.2699 15.4 23.6499 14.77 23.6599C12.46 23.6799 10.72 24.6999 9.63 26.7699C9.57 26.8799 9.46 26.9699 9.38 27.0599C8.45 25.7099 8.5 24.3099 9.31 22.9699C10.11 21.6399 11.37 21.0399 12.92 21.1499C14.31 21.2599 14.77 20.9399 15.01 19.5799C15.2 18.4999 15.85 17.9899 16.91 18.2599C17.76 18.4699 18.41 18.2999 18.96 17.6699Z" fill="#FBC773"/>
<path d="M28.73 11.68C26.95 11.06 25.16 10.82 23.36 11.59C21.16 12.53 19.74 14.15 19.16 16.49C17.77 13.56 18.88 10.36 21.74 9.07001C24.41 7.86001 27.57 9.04001 28.73 11.68Z" fill="#FBC773"/>
<path d="M49.02 23.37C49.08 20.61 51.57 18.2 54.32 18.24C55.25 18.25 55.89 18.8 55.96 19.62C56.02 20.36 55.43 21.06 54.61 21.22C52.63 21.6 52.35 21.88 51.99 23.84C51.84 24.66 51.14 25.25 50.4 25.2C49.52 25.14 49 24.45 49.02 23.37Z" fill="#030303"/>
<path d="M39.06 12.4798C41.43 12.5198 43.61 14.7298 43.63 17.1198C43.64 17.9998 43.07 18.7098 42.26 18.8098C41.47 18.9098 40.81 18.3398 40.64 17.4198C40.39 16.0798 39.99 15.6598 38.78 15.4798C37.79 15.3298 37.21 14.6898 37.29 13.8398C37.38 12.9798 38.06 12.4598 39.06 12.4798Z" fill="#030303"/>
<path d="M114.46 88.98C109.37 88.98 104.77 88.1 100.64 86.36C96.51 84.61 93.09 82.08 90.39 78.78L101.09 66.1C102.94 68.48 104.85 70.28 106.84 71.5C108.82 72.72 110.9 73.33 113.08 73.33C118.89 73.33 121.8 69.96 121.8 63.23V33.4H97.83V18.25H141.22V62.04C141.22 71.09 138.94 77.84 134.38 82.3C129.82 86.76 123.18 88.98 114.46 88.98Z" fill="black"/>
<path d="M189.16 88.9799C183.68 88.9799 178.59 88.0999 173.9 86.3599C169.21 84.6099 165.17 82.1199 161.76 78.8799C158.36 75.6399 155.7 71.8299 153.79 67.4399C151.87 63.0499 150.92 58.2099 150.92 52.9299C150.92 47.6499 151.88 42.8099 153.79 38.4199C155.7 34.0299 158.38 30.2099 161.81 26.9799C165.24 23.7499 169.32 21.2499 174.04 19.4999C178.76 17.7499 183.93 16.8799 189.54 16.8799C196.08 16.8799 201.92 17.9699 207.08 20.1499C212.24 22.3299 216.49 25.4699 219.86 29.5599L207.38 40.8499C205 38.2699 202.44 36.3399 199.7 35.0499C196.96 33.7599 193.9 33.1199 190.54 33.1199C187.57 33.1199 184.86 33.5799 182.42 34.5099C179.98 35.4399 177.9 36.7699 176.18 38.5199C174.46 40.2699 173.12 42.3499 172.17 44.7599C171.21 47.1699 170.73 49.8999 170.73 52.9299C170.73 55.8399 171.21 58.5099 172.17 60.9499C173.13 63.3899 174.46 65.4899 176.18 67.2399C177.9 68.9899 179.96 70.3499 182.37 71.2999C184.78 72.2599 187.44 72.7399 190.34 72.7399C193.25 72.7399 196.09 72.2599 198.86 71.2999C201.63 70.3399 204.44 68.7099 207.28 66.3999L218.28 80.1699C214.32 83.0099 209.73 85.1899 204.51 86.7099C199.29 88.2199 194.17 88.9799 189.16 88.9799ZM200.95 77.5899V51.4399H218.29V80.1699L200.95 77.5899Z" fill="black"/>
<path d="M230.76 87.59V18.25H246.91L275.64 65.41H267.12L295.06 18.25H311.21L311.41 87.6H293.38L293.18 45.69H296.25L275.35 80.76H266.63L245.13 45.69H248.89V87.6H230.76V87.59Z" fill="black"/>
<path d="M359.85 88.0898C354.7 88.0898 349.93 87.2198 345.54 85.4698C341.15 83.7198 337.32 81.2398 334.05 78.0398C330.78 74.8398 328.26 71.1098 326.47 66.8498C324.69 62.5898 323.8 57.9498 323.8 52.9298C323.8 47.9098 324.69 43.2698 326.47 39.0098C328.25 34.7498 330.78 31.0198 334.05 27.8198C337.32 24.6198 341.15 22.1398 345.54 20.3898C349.93 18.6398 354.7 17.7698 359.85 17.7698C365 17.7698 369.77 18.6498 374.17 20.3898C378.56 22.1398 382.38 24.5998 385.61 27.7698C388.84 30.9398 391.37 34.6498 393.19 38.9098C395.01 43.1698 395.91 47.8398 395.91 52.9298C395.91 58.0198 395 62.6898 393.19 66.9498C391.38 71.2098 388.85 74.9198 385.61 78.0898C382.37 81.2598 378.56 83.7198 374.17 85.4698C369.77 87.2098 365 88.0898 359.85 88.0898ZM359.85 83.4298C364.27 83.4298 368.37 82.6698 372.14 81.1498C375.9 79.6298 379.17 77.4798 381.95 74.7098C384.72 71.9398 386.89 68.6998 388.44 64.9998C389.99 61.2998 390.77 57.2698 390.77 52.9098C390.77 48.4898 389.99 44.4398 388.44 40.7698C386.89 37.0998 384.73 33.8898 381.95 31.1098C379.18 28.3398 375.91 26.1898 372.14 24.6698C368.37 23.1498 364.28 22.3898 359.85 22.3898C355.42 22.3898 351.33 23.1498 347.57 24.6698C343.8 26.1898 340.52 28.3398 337.71 31.1098C334.9 33.8798 332.72 37.0998 331.17 40.7698C329.62 44.4398 328.84 48.4798 328.84 52.9098C328.84 57.2698 329.62 61.2998 331.17 64.9998C332.72 68.6998 334.9 71.9298 337.71 74.7098C340.52 77.4798 343.8 79.6298 347.57 81.1498C351.33 82.6698 355.42 83.4298 359.85 83.4298Z" fill="black"/>
<path d="M430.78 87.59L399.87 18.24H405.42L434.94 84.52H431.87L461.49 18.24H466.74L435.83 87.59H430.78Z" fill="black"/>
<path d="M477.93 87.59V18.25H482.98V87.6H477.93V87.59Z" fill="black"/>
<path d="M512.21 83.04H555.01V87.6H507.16V18.25H553.52V22.81H512.21V83.04ZM511.62 50.15H549.17V54.61H511.62V50.15Z" fill="black"/>
<path d="M591.66 88.0898C586.51 88.0898 581.64 87.2198 577.05 85.4698C572.46 83.7198 568.91 81.4598 566.4 78.6798L568.68 74.9198C571.06 77.3598 574.31 79.4298 578.44 81.1098C582.57 82.7898 586.94 83.6398 591.57 83.6398C596.19 83.6398 599.97 83.0298 602.91 81.8098C605.85 80.5898 608.03 78.9498 609.45 76.9098C610.87 74.8598 611.58 72.5798 611.58 70.0698C611.58 67.0998 610.79 64.7198 609.2 62.9398C607.61 61.1598 605.53 59.7398 602.96 58.6798C600.38 57.6198 597.58 56.7298 594.54 56.0098C591.5 55.2798 588.43 54.5098 585.33 53.6798C582.23 52.8498 579.39 51.7798 576.81 50.4598C574.23 49.1398 572.17 47.3398 570.62 45.0598C569.07 42.7798 568.29 39.8298 568.29 36.1898C568.29 32.8898 569.15 29.8498 570.87 27.0798C572.59 24.3098 575.26 22.0598 578.89 20.3398C582.52 18.6198 587.18 17.7598 592.86 17.7598C596.69 17.7598 600.47 18.3198 604.2 19.4398C607.93 20.5598 611.12 22.0798 613.76 23.9998L611.88 28.0598C608.97 26.0798 605.85 24.6098 602.52 23.6498C599.18 22.6898 595.96 22.2098 592.86 22.2098C588.43 22.2098 584.77 22.8398 581.86 24.0898C578.95 25.3398 576.81 27.0098 575.42 29.0898C574.03 31.1698 573.34 33.4998 573.34 36.0698C573.34 39.0398 574.12 41.4198 575.67 43.1998C577.22 44.9798 579.29 46.3998 581.86 47.4598C584.44 48.5198 587.27 49.4098 590.38 50.1298C593.48 50.8598 596.55 51.6298 599.59 52.4598C602.63 53.2898 605.43 54.3598 608.01 55.6798C610.59 56.9998 612.67 58.7898 614.25 61.0298C615.83 63.2798 616.63 66.1798 616.63 69.7498C616.63 72.9898 615.74 76.0098 613.96 78.8098C612.18 81.6198 609.45 83.8598 605.79 85.5498C602.11 87.2498 597.41 88.0898 591.66 88.0898Z" fill="black"/>
</g>
<defs>
<filter id="filter0_d_81_109" x="0.65712" y="0.909912" width="619.973" height="110.13" filterUnits="userSpaceOnUse" color-interpolation-filters="sRGB">
<feFlood flood-opacity="0" result="BackgroundImageFix"/>
<feColorMatrix in="SourceAlpha" type="matrix" values="0 0 0 0 0 0 0 0 0 0 0 0 0 0 0 0 0 0 127 0" result="hardAlpha"/>
<feOffset dy="4"/>
<feGaussianBlur stdDeviation="2"/>
<feComposite in2="hardAlpha" operator="out"/>
<feColorMatrix type="matrix" values="0 0 0 0 0 0 0 0 0 0 0 0 0 0 0 0 0 0 0.25 0"/>
<feBlend mode="normal" in2="BackgroundImageFix" result="effect1_dropShadow_81_109"/>
<feBlend mode="normal" in="SourceGraphic" in2="effect1_dropShadow_81_109" result="shape"/>
</filter>
</defs>
</svg>
