<svg width="620" height="111" viewBox="0 0 620 111" fill="none" xmlns="http://www.w3.org/2000/svg">
<g filter="url(#filter0_d_81_80)">
<path d="M40.6029 0C41.2829 0.2 41.9729 0.369998 42.6429 0.599998C43.8029 0.989998 44.1129 1.58 43.8229 2.78C43.7129 3.72 43.0029 3.78 42.2929 3.81C41.8229 3.83 41.3929 3.61999 40.9429 3.50999C36.3729 2.43999 32.1429 5.34 31.5029 9.99C31.3629 11.02 30.9729 11.83 29.8929 12.14C28.9029 12.21 28.3029 11.67 27.8929 10.84C26.7329 8.7 24.9129 7.76 22.5329 8.06C20.4629 8.32 19.0929 9.55 18.3929 11.48C17.8929 12.86 18.1629 14.23 18.6729 15.57C18.7729 16.01 18.6729 16.41 18.4729 16.79C17.9629 17.58 17.2729 17.83 16.3429 17.63C15.4429 17.43 14.9229 17.79 14.6329 18.68C14.0729 20.42 13.9129 20.5 12.0229 20.49C9.04288 20.48 7.45288 23.53 8.94288 26.08C9.36288 26.84 9.95288 27.09 10.8429 26.96C13.5129 26.56 15.9729 27.24 18.2829 28.55C18.5429 28.7 18.7929 28.86 19.0529 29.01C19.4729 29.27 19.8929 29.41 20.3229 29.03C20.7529 28.65 20.5329 28.25 20.3729 27.85C19.1229 24.75 19.4829 21.83 21.5029 19.2C23.1629 17.02 25.4329 15.87 28.2129 15.92C29.2429 15.94 29.9129 16.57 30.0029 17.45C30.0929 18.28 29.4929 19.06 28.5429 19.32C28.2829 19.39 28.0229 19.4 27.7529 19.44C25.2829 19.81 23.6929 21.38 23.2629 23.84C23.1029 24.76 23.3429 25.62 23.6529 26.47C23.8429 27 24.2229 27.17 24.7529 27.06C27.4829 26.49 29.9429 27.18 32.2229 28.69C32.7829 29.07 33.2429 29.13 33.8329 28.68C37.0129 26.27 40.3729 26.34 43.6929 28.28C44.9229 29 45.7629 29.21 47.1129 28.35C50.6229 26.11 54.2529 26.45 57.7029 28.65C58.6029 29.23 59.2729 29.3 60.2129 28.73C62.6629 27.26 65.3029 26.46 68.2029 27.04C68.9529 27.19 69.2029 26.69 69.4229 26.15C70.6229 23.28 69.0229 19.92 66.0329 19.04C65.6529 18.93 65.2529 18.88 64.8629 18.79C63.7529 18.55 63.2729 18 63.2129 16.87C63.0929 14.65 62.7129 14.21 60.5229 13.78C59.5429 13.59 58.9229 13.04 58.6529 12.08C58.5029 11.53 58.3429 10.99 57.9629 10.55C57.0129 9.44 55.8329 8.83 54.3529 9.14C52.8229 9.46 51.8829 10.48 51.4629 11.99C51.0329 13.53 50.4229 14.03 48.9729 14.04C47.4229 14.05 46.6529 13.37 46.7029 11.81C46.7629 10.03 46.3329 8.39 45.5929 6.81C45.4729 6.05 45.5029 5.35 46.3729 5.03C47.6629 4.6 48.1729 4.8 48.7829 5.99C48.9629 6.34 49.1329 6.7 49.2829 7.07C49.4229 7.43 49.5229 7.79999 49.6729 8.25999C50.7829 7.14999 51.9429 6.33 53.4029 5.98C56.6029 5.22 59.8529 6.72 61.2729 9.7C61.5329 10.24 61.8229 10.56 62.4229 10.74C64.5629 11.39 65.8529 12.91 66.3729 15.06C66.4829 15.53 66.6229 15.76 67.0929 15.92C72.3229 17.72 74.5529 23.19 72.1029 28.15C71.9629 28.43 71.6629 28.71 72.1529 28.95C75.0329 30.3 74.7129 32.73 74.3629 35.26C73.7229 39.86 73.1929 44.47 72.6129 49.07C71.9729 54.13 71.3329 59.2 70.6929 64.26C70.1329 68.77 69.5829 73.27 69.0229 77.78C68.4729 82.22 67.9229 86.66 67.3629 91.1C67.0729 93.43 66.6529 95.76 66.4829 98.1C66.3429 100 65.5729 101.34 63.8529 102.13C47.5329 102.13 31.2029 102.13 14.8829 102.13C13.0329 101.41 12.3429 99.96 12.1329 98.06C11.5729 92.99 10.9329 87.92 10.3029 82.86C9.61288 77.3 8.88287 71.75 8.18287 66.19C7.62287 61.68 7.08288 57.18 6.52288 52.67C5.96288 48.16 5.38288 43.66 4.81288 39.16C4.53288 36.96 4.21288 34.76 4.01288 32.55C3.89288 31.2 4.62288 30.18 5.73288 29.51C6.57288 29.01 6.70288 28.68 6.10288 27.77C3.42288 23.7 5.79288 18.28 10.5729 17.36C11.2129 17.24 11.6829 17.06 12.0029 16.39C12.4629 15.43 13.3229 14.81 14.3329 14.5C14.8329 14.35 14.8829 14.13 14.8529 13.67C14.6729 10.11 16.1829 7.4 19.2529 5.71C22.3129 4.02 25.3729 4.34 28.2129 6.35C28.7629 6.74 28.9029 6.74 29.2229 6.12C30.8929 2.85 33.5129 0.819995 37.1629 0.189995C37.2429 0.179995 37.3029 0.0799966 37.3729 0.0199966C38.4829 -3.35649e-06 39.5429 0 40.6029 0Z" fill="#020203"/>
<path d="M46.4029 5.00002C45.9229 5.50002 45.6829 6.08001 45.7929 6.77001C45.2629 6.96001 44.8329 6.63001 44.3829 6.45001C39.7429 4.63001 34.5429 6.79001 32.5529 11.37C32.3929 11.73 32.2729 12.11 32.0229 12.43C31.7129 12.83 31.2929 13.03 30.8029 12.91C30.3229 12.79 29.8229 12.63 29.8529 11.97C30.7629 11.68 31.1029 11.01 31.2129 10.1C31.8329 4.95001 36.5929 1.86001 41.5629 3.40001C42.5129 3.69001 43.2429 3.60001 43.8129 2.76001C44.8529 3.32001 45.7029 4.07002 46.4029 5.00002Z" fill="#FBC773"/>
<path d="M29.8629 11.98C30.8629 13.09 31.6529 13.03 32.1429 11.74C34.2029 6.40005 40.0929 3.99005 45.4429 6.60005C45.5629 6.66005 45.6829 6.71005 45.8029 6.77005C46.7729 8.27005 47.0829 9.93005 46.9829 11.7C46.9129 13.03 47.3629 13.6 48.4629 13.73C50.1229 13.92 50.8729 13.48 51.1829 12.15C51.6729 10.05 53.1129 8.79005 55.0329 8.77005C56.9529 8.75005 58.4529 9.99004 58.9429 12.05C59.1529 12.95 59.6729 13.39 60.6029 13.47C62.7029 13.66 63.5329 14.62 63.5029 16.7C63.4829 17.93 63.9029 18.38 65.2029 18.53C69.1329 18.99 71.3729 23.36 69.4429 26.78C69.2229 27.17 69.0229 27.45 68.4529 27.33C65.3529 26.65 62.5529 27.52 59.9529 29.16C59.2429 29.61 58.8029 29.66 58.0729 29.16C53.9629 26.33 50.0929 26.41 46.0429 29.35C45.5829 29.69 45.3229 29.56 44.9429 29.3C43.1529 28.05 41.2229 27.15 38.9829 27.11C36.9629 27.08 35.2229 27.81 33.7129 29.1C33.2529 29.49 32.9629 29.51 32.4629 29.14C30.0429 27.37 27.3729 26.61 24.4129 27.41C23.8029 27.58 23.7229 27.17 23.5629 26.86C21.8029 23.5 24.1729 19.35 27.9729 19.14C28.7229 19.1 29.3529 18.92 29.6829 18.19C30.1429 17.15 29.4129 16.15 28.1829 16.13C24.3629 16.07 20.7629 19.13 20.1229 22.92C19.8129 24.76 20.0629 26.48 20.8429 28.15C20.9829 28.44 21.3929 28.8 20.8329 29.04C20.3529 29.25 20.0729 29.99 19.3029 29.46C17.6629 28.31 15.8429 27.52 13.8529 27.21C12.8929 27.06 11.9129 26.98 10.9829 27.21C9.86288 27.5 9.21288 27.1 8.76288 26.13C9.22288 24.28 11.1929 22.68 13.4129 22.51C14.3929 22.44 15.0129 22.09 15.4729 21.24C15.9329 20.4 16.6229 19.77 17.5729 19.52C18.1329 19.37 18.3329 19.03 18.2029 18.48C18.0629 17.88 18.0629 17.3 18.3329 16.73C18.4529 16.34 18.5629 15.96 18.5229 15.54C18.3829 14.19 19.1129 13.17 19.9429 12.29C21.8329 10.31 24.1329 9.45004 26.8729 10.12C27.3329 10.23 27.7629 10.37 28.0929 10.74C28.4729 11.46 28.9729 12.01 29.8629 11.98Z" fill="#FCD8A0"/>
<path d="M57.8629 45.0601C59.2029 44.6801 59.4229 44.3501 59.5229 42.9801C59.7729 39.6401 60.0529 36.2901 60.3029 32.9501C60.3229 32.6601 60.3929 32.4501 60.6429 32.2801C64.1329 29.8401 67.5829 29.2101 71.0829 31.8101C71.5429 32.1501 71.6929 32.4801 71.6129 33.0501C70.8129 39.3301 70.0429 45.6201 69.2429 51.9101C68.3429 59.0801 67.4229 66.2601 66.5229 73.4301C65.7829 79.3201 65.0429 85.2101 64.3329 91.1101C64.2729 91.6101 64.1429 91.7701 63.6329 91.7601C61.2129 91.7301 58.7929 91.7301 56.3729 91.7601C55.8429 91.7701 55.6329 91.6801 55.6929 91.0701C56.0229 87.2001 56.2929 83.3201 56.6029 79.4501C56.9729 74.7501 57.3529 70.0501 57.7329 65.3501C58.1029 60.7501 58.4829 56.1501 58.8529 51.5501C58.9029 50.9501 58.9329 50.3601 58.9329 49.7601C58.9429 48.8601 58.2729 48.5401 57.5729 48.2701C57.3529 47.1701 57.1729 46.0801 57.8629 45.0601Z" fill="#FAF8F9"/>
<path d="M57.8629 45.06C57.7629 46.13 57.6629 47.2 57.5729 48.27C56.2729 48.63 56.0329 48.95 55.9329 50.26C55.5029 55.69 55.0429 61.11 54.6029 66.54C54.2429 71.11 53.9029 75.67 53.5429 80.24C53.2629 83.78 52.9729 87.32 52.7129 90.86C52.6629 91.57 52.4129 91.8 51.6829 91.77C49.9629 91.71 48.2329 91.73 46.5129 91.76C45.9729 91.77 45.7729 91.64 45.7829 91.05C45.9629 83.94 46.1129 76.83 46.2729 69.73C46.3629 65.81 46.4729 61.89 46.5529 57.97C46.7229 49.8 46.8829 41.63 47.0129 33.45C47.0229 32.63 47.3029 32.11 47.9629 31.64C51.1429 29.37 54.0129 29.85 57.0029 32.08C57.4929 32.45 57.3229 32.91 57.2829 33.35C57.0429 36.56 56.8029 39.77 56.5129 42.98C56.4029 44.08 56.7929 44.77 57.8629 45.06Z" fill="#E53F55"/>
<path d="M23.4529 78.67C24.6429 78.4 24.9929 78.01 24.9029 76.83C24.5329 71.9 24.1329 66.97 23.7429 62.04C23.4529 58.4 23.1729 54.76 22.8829 51.12C22.5129 46.42 22.1229 41.72 21.7529 37.02C21.6429 35.66 21.5729 34.3 21.4629 32.95C21.4329 32.56 21.5129 32.29 21.8429 32.01C24.7229 29.62 28.1029 29.55 31.0429 31.85C31.4629 32.18 31.6629 32.52 31.6829 33.09C31.8629 42.83 32.0729 52.56 32.2829 62.3C32.4829 71.77 32.6729 81.24 32.9129 90.71C32.9329 91.63 32.6729 91.81 31.8229 91.78C30.1629 91.71 28.5029 91.75 26.8429 91.77C26.3429 91.78 26.0829 91.72 26.0429 91.09C25.8929 88.61 25.6529 86.13 25.4729 83.64C25.4029 82.59 24.8129 82.11 23.8429 81.97C23.2029 80.93 23.3529 79.8 23.4529 78.67Z" fill="#E53F55"/>
<path d="M35.3529 63.32C35.1029 52.26 34.8929 42.63 34.6629 32.99C34.6529 32.44 34.8129 32.06 35.2229 31.7C37.3929 29.77 39.5729 29.65 42.3529 31.18C43.5729 31.85 44.0929 32.61 44.0529 34.12C43.5829 53.09 43.2029 72.07 42.8129 91.04C42.8029 91.6 42.6629 91.77 42.1029 91.75C40.3429 91.71 38.5829 91.7 36.8329 91.75C36.1629 91.77 35.9429 91.6 35.9329 90.9C35.8629 86.45 35.7429 82 35.6429 77.54C35.5229 72.33 35.4229 67.12 35.3529 63.32Z" fill="#FAF8F9"/>
<path d="M21.8929 91.7099C19.6429 91.7199 17.3829 91.7099 15.1329 91.7599C14.5329 91.7699 14.4129 91.5099 14.3529 91.0199C13.8829 87.1399 13.4129 83.2499 12.9229 79.3699C12.2929 74.2999 11.6529 69.2399 11.0229 64.1799C10.4629 59.6699 9.90288 55.1699 9.34288 50.6599C8.71288 45.5899 8.07288 40.5299 7.44288 35.4599C7.39288 35.0699 7.37288 34.6699 7.32288 34.2699C7.02288 31.9799 7.02288 31.9599 9.06288 30.9299C11.2029 29.8499 13.3729 29.8199 15.5329 30.8999C14.8629 31.7399 14.8129 32.6599 14.9429 33.7099C16.5729 46.7599 18.2229 59.8099 19.8329 72.8699C20.5629 78.7699 21.3229 84.6699 22.0329 90.5699C22.0829 90.9599 22.2029 91.3599 21.8929 91.7099Z" fill="#EFEDEF"/>
<path d="M39.4129 94.74C47.2329 94.74 55.0629 94.75 62.8829 94.72C63.7229 94.72 63.9829 94.86 63.7529 95.74C63.5629 96.44 63.5429 97.18 63.5029 97.91C63.4629 98.78 63.1629 99.16 62.1729 99.15C53.3229 99.11 44.4729 99.13 35.6129 99.13C29.2829 99.13 22.9529 99.12 16.6129 99.15C15.7429 99.15 15.2329 99.02 15.2529 97.99C15.2629 97.24 15.0929 96.48 14.9429 95.73C14.7929 94.97 15.0029 94.72 15.8229 94.73C23.6929 94.75 31.5529 94.74 39.4129 94.74Z" fill="#E53F55"/>
<path d="M21.8929 91.7099C21.5029 88.7099 21.0929 85.7099 20.7229 82.6999C20.3629 79.7899 20.0529 76.8799 19.6929 73.9699C19.3329 71.0599 18.9129 68.1599 18.5529 65.2599C18.2529 62.8699 18.0029 60.4799 17.7029 58.0999C17.4029 55.7199 17.0729 53.3399 16.7729 50.9499C16.4729 48.5999 16.2029 46.2399 15.9129 43.8899C15.6129 41.4699 15.2929 39.0599 14.9929 36.6399C14.8229 35.2299 14.6429 33.8299 14.5329 32.4199C14.4829 31.7199 14.7129 31.0999 15.5229 30.9199C16.4629 31.1699 17.2229 31.7599 18.0329 32.2599C18.4129 32.4999 18.4129 32.8599 18.4429 33.2099C18.8629 38.5699 19.2729 43.9199 19.6929 49.2799C20.1229 54.6999 20.5729 60.1199 21.0129 65.5399C21.3129 69.2799 21.6029 73.0099 21.8829 76.7499C21.9729 78.0099 22.2629 78.4099 23.4329 78.6899C23.8229 79.7599 23.5929 80.8899 23.8329 81.9799C22.7729 82.2699 22.3629 82.9599 22.4729 84.0599C22.6829 86.2299 22.8229 88.4099 23.0229 90.5899C23.1429 91.7799 23.1629 91.7799 21.8929 91.7099Z" fill="#FAF8F9"/>
<path d="M18.3029 16.76C18.3029 16.93 18.2729 17.1 18.3129 17.26C18.6429 18.67 18.6029 19.81 16.7929 20.21C16.0629 20.37 15.7229 21.23 15.3329 21.89C15.0529 22.36 14.7429 22.74 14.1129 22.75C11.8029 22.77 10.0629 23.79 8.97288 25.86C8.91288 25.97 8.80288 26.06 8.72288 26.15C7.79288 24.8 7.84288 23.4 8.65288 22.06C9.45288 20.73 10.7129 20.13 12.2629 20.24C13.6529 20.35 14.1129 20.03 14.3529 18.67C14.5429 17.59 15.1929 17.08 16.2529 17.35C17.1029 17.56 17.7529 17.39 18.3029 16.76Z" fill="#FBC773"/>
<path d="M28.0729 10.7701C26.2929 10.1501 24.5029 9.91009 22.7029 10.6801C20.5029 11.6201 19.0829 13.2401 18.5029 15.5801C17.1129 12.6501 18.2229 9.4501 21.0829 8.1601C23.7529 6.9501 26.9129 8.1301 28.0729 10.7701Z" fill="#FBC773"/>
<path d="M48.3629 22.4601C48.4229 19.7001 50.9129 17.2901 53.6629 17.3301C54.5929 17.3401 55.2329 17.8901 55.3029 18.7101C55.3629 19.4501 54.7729 20.1501 53.9529 20.3101C51.9729 20.6901 51.6929 20.9701 51.3329 22.9301C51.1829 23.7501 50.4829 24.3401 49.7429 24.2901C48.8629 24.2301 48.3429 23.5401 48.3629 22.4601Z" fill="#030303"/>
<path d="M38.4029 11.5699C40.7729 11.6099 42.9529 13.8199 42.9729 16.2099C42.9829 17.0899 42.4129 17.7999 41.6029 17.8999C40.8129 17.9999 40.1529 17.4299 39.9829 16.5099C39.7329 15.1699 39.3329 14.7499 38.1229 14.5699C37.1329 14.4199 36.5529 13.7799 36.6329 12.9299C36.7229 12.0699 37.4029 11.5499 38.4029 11.5699Z" fill="#030303"/>
<path d="M113.803 88.0701C108.713 88.0701 104.113 87.1901 99.9829 85.4501C95.8529 83.7001 92.4329 81.1701 89.7329 77.8701L100.433 65.1901C102.283 67.5701 104.193 69.3701 106.183 70.5901C108.163 71.8101 110.243 72.4201 112.423 72.4201C118.233 72.4201 121.143 69.0501 121.143 62.3201V32.4901H97.1729V17.3401H140.563V61.1301C140.563 70.1801 138.283 76.9301 133.723 81.3901C129.163 85.8501 122.523 88.0701 113.803 88.0701Z" fill="white"/>
<path d="M188.503 88.07C183.023 88.07 177.933 87.19 173.243 85.45C168.553 83.7 164.513 81.21 161.103 77.97C157.703 74.73 155.043 70.92 153.133 66.53C151.213 62.14 150.263 57.3 150.263 52.02C150.263 46.74 151.223 41.9 153.133 37.51C155.043 33.12 157.723 29.3 161.153 26.07C164.583 22.84 168.663 20.34 173.383 18.59C178.103 16.84 183.273 15.97 188.883 15.97C195.423 15.97 201.263 17.06 206.423 19.24C211.583 21.42 215.833 24.56 219.203 28.65L206.723 39.94C204.343 37.36 201.783 35.43 199.043 34.14C196.303 32.85 193.243 32.21 189.883 32.21C186.913 32.21 184.203 32.67 181.763 33.6C179.323 34.53 177.243 35.86 175.523 37.61C173.803 39.36 172.463 41.44 171.513 43.85C170.553 46.26 170.073 48.99 170.073 52.02C170.073 54.93 170.553 57.6 171.513 60.04C172.473 62.48 173.803 64.58 175.523 66.33C177.243 68.08 179.303 69.44 181.713 70.39C184.123 71.35 186.783 71.83 189.683 71.83C192.593 71.83 195.433 71.35 198.203 70.39C200.973 69.43 203.783 67.8 206.623 65.49L217.623 79.26C213.663 82.1 209.073 84.28 203.853 85.8C198.633 87.31 193.513 88.07 188.503 88.07ZM200.293 76.68V50.53H217.633V79.26L200.293 76.68Z" fill="white"/>
<path d="M230.103 86.6801V17.3401H246.253L274.983 64.5001H266.463L294.403 17.3401H310.553L310.753 86.6901H292.723L292.523 44.7801H295.593L274.693 79.8501H265.973L244.473 44.7801H248.233V86.6901H230.103V86.6801Z" fill="white"/>
<path d="M359.193 87.1799C354.043 87.1799 349.273 86.3099 344.883 84.5599C340.493 82.8099 336.663 80.3299 333.393 77.1299C330.123 73.9299 327.603 70.1999 325.813 65.9399C324.033 61.6799 323.143 57.0399 323.143 52.0199C323.143 46.9999 324.033 42.3599 325.813 38.0999C327.593 33.8399 330.123 30.1099 333.393 26.9099C336.663 23.7099 340.493 21.2299 344.883 19.4799C349.273 17.7299 354.043 16.8599 359.193 16.8599C364.343 16.8599 369.113 17.7399 373.513 19.4799C377.903 21.2299 381.723 23.6899 384.953 26.8599C388.183 30.0299 390.713 33.7399 392.533 37.9999C394.353 42.2599 395.253 46.9299 395.253 52.0199C395.253 57.1099 394.343 61.7799 392.533 66.0399C390.723 70.2999 388.193 74.0099 384.953 77.1799C381.713 80.3499 377.903 82.8099 373.513 84.5599C369.113 86.2999 364.343 87.1799 359.193 87.1799ZM359.193 82.5199C363.613 82.5199 367.713 81.7599 371.483 80.2399C375.243 78.7199 378.513 76.5699 381.293 73.7999C384.063 71.0299 386.233 67.7899 387.783 64.0899C389.333 60.3899 390.113 56.3599 390.113 51.9999C390.113 47.5799 389.333 43.5299 387.783 39.8599C386.233 36.1899 384.073 32.9799 381.293 30.1999C378.523 27.4299 375.253 25.2799 371.483 23.7599C367.713 22.2399 363.623 21.4799 359.193 21.4799C354.763 21.4799 350.673 22.2399 346.913 23.7599C343.143 25.2799 339.863 27.4299 337.053 30.1999C334.243 32.9699 332.063 36.1899 330.513 39.8599C328.963 43.5299 328.183 47.5699 328.183 51.9999C328.183 56.3599 328.963 60.3899 330.513 64.0899C332.063 67.7899 334.243 71.0199 337.053 73.7999C339.863 76.5699 343.143 78.7199 346.913 80.2399C350.673 81.7599 354.763 82.5199 359.193 82.5199Z" fill="white"/>
<path d="M430.123 86.6801L399.213 17.3301H404.763L434.283 83.6101H431.213L460.833 17.3301H466.083L435.173 86.6801H430.123Z" fill="white"/>
<path d="M477.273 86.6801V17.3401H482.323V86.6901H477.273V86.6801Z" fill="white"/>
<path d="M511.553 82.1301H554.353V86.6901H506.503V17.3401H552.863V21.9001H511.553V82.1301ZM510.963 49.2401H548.513V53.7001H510.963V49.2401Z" fill="white"/>
<path d="M591.003 87.1801C585.853 87.1801 580.983 86.3101 576.393 84.5601C571.803 82.8101 568.253 80.5501 565.743 77.7701L568.023 74.0101C570.403 76.4501 573.653 78.5201 577.783 80.2001C581.913 81.8801 586.283 82.7301 590.913 82.7301C595.533 82.7301 599.313 82.1201 602.253 80.9001C605.193 79.6801 607.373 78.0401 608.793 76.0001C610.213 73.9501 610.923 71.6701 610.923 69.1601C610.923 66.1901 610.133 63.8101 608.543 62.0301C606.953 60.2501 604.873 58.8301 602.303 57.7701C599.723 56.7101 596.923 55.8201 593.883 55.1001C590.843 54.3701 587.773 53.6001 584.673 52.7701C581.573 51.9401 578.733 50.8701 576.153 49.5501C573.573 48.2301 571.513 46.4301 569.963 44.1501C568.413 41.8701 567.633 38.9201 567.633 35.2801C567.633 31.9801 568.493 28.9401 570.213 26.1701C571.933 23.4001 574.603 21.1501 578.233 19.4301C581.863 17.7101 586.523 16.8501 592.203 16.8501C596.033 16.8501 599.813 17.4101 603.543 18.5301C607.273 19.6501 610.463 21.1701 613.103 23.0901L611.223 27.1501C608.313 25.1701 605.193 23.7001 601.863 22.7401C598.523 21.7801 595.303 21.3001 592.203 21.3001C587.773 21.3001 584.113 21.9301 581.203 23.1801C578.293 24.4301 576.153 26.1001 574.763 28.1801C573.373 30.2601 572.683 32.5901 572.683 35.1601C572.683 38.1301 573.463 40.5101 575.013 42.2901C576.563 44.0701 578.633 45.4901 581.203 46.5501C583.783 47.6101 586.613 48.5001 589.723 49.2201C592.823 49.9501 595.893 50.7201 598.933 51.5501C601.973 52.3801 604.773 53.4501 607.353 54.7701C609.933 56.0901 612.013 57.8801 613.593 60.1201C615.173 62.3701 615.973 65.2701 615.973 68.8401C615.973 72.0801 615.083 75.1001 613.303 77.9001C611.523 80.7101 608.793 82.9501 605.133 84.6401C601.453 86.3401 596.753 87.1801 591.003 87.1801Z" fill="white"/>
</g>
<defs>
<filter id="filter0_d_81_80" x="0" y="0" width="619.973" height="110.13" filterUnits="userSpaceOnUse" color-interpolation-filters="sRGB">
<feFlood flood-opacity="0" result="BackgroundImageFix"/>
<feColorMatrix in="SourceAlpha" type="matrix" values="0 0 0 0 0 0 0 0 0 0 0 0 0 0 0 0 0 0 127 0" result="hardAlpha"/>
<feOffset dy="4"/>
<feGaussianBlur stdDeviation="2"/>
<feComposite in2="hardAlpha" operator="out"/>
<feColorMatrix type="matrix" values="0 0 0 0 0 0 0 0 0 0 0 0 0 0 0 0 0 0 0.25 0"/>
<feBlend mode="normal" in2="BackgroundImageFix" result="effect1_dropShadow_81_80"/>
<feBlend mode="normal" in="SourceGraphic" in2="effect1_dropShadow_81_80" result="shape"/>
</filter>
</defs>
</svg>
