<svg width="18" height="17" viewBox="0 0 18 17" fill="none" xmlns="http://www.w3.org/2000/svg">
<path d="M12 10.5L12.2572 10.9287C12.4079 10.8384 12.5 10.6756 12.5 10.5C12.5 10.3244 12.4079 10.1616 12.2572 10.0713L12 10.5ZM7 7.5L7.25725 7.07125C7.10278 6.97857 6.91041 6.97615 6.75365 7.0649C6.5969 7.15365 6.5 7.31986 6.5 7.5H7ZM7 13.5H6.5C6.5 13.6801 6.5969 13.8463 6.75365 13.9351C6.91041 14.0239 7.10278 14.0214 7.25725 13.9287L7 13.5ZM16.5 4.5V14.5H17.5V4.5H16.5ZM15 16H3V17H15V16ZM1.5 14.5V4.5H0.5V14.5H1.5ZM17.5 4.5V2.5H16.5V4.5H17.5ZM0.5 2.5V4.5H1.5V2.5H0.5ZM9.5 4.5V0.5H8.5V4.5H9.5ZM9 5H13V4H9V5ZM13 5H17V4H13V5ZM15 0H13V1H15V0ZM13 0H9V1H13V0ZM13.5 4.5V0.5H12.5V4.5H13.5ZM9 0H5V1H9V0ZM5 0H3V1H5V0ZM1 5H5V4H1V5ZM5 5H9V4H5V5ZM4.5 0.5V4.5H5.5V0.5H4.5ZM12.2572 10.0713L7.25725 7.07125L6.74275 7.92875L11.7428 10.9287L12.2572 10.0713ZM6.5 7.5V13.5H7.5V7.5H6.5ZM7.25725 13.9287L12.2572 10.9287L11.7428 10.0713L6.74275 13.0713L7.25725 13.9287ZM1.5 2.5C1.5 1.67157 2.17157 1 3 1V0C1.61929 0 0.5 1.11929 0.5 2.5H1.5ZM17.5 2.5C17.5 1.11929 16.3807 0 15 0V1C15.8284 1 16.5 1.67157 16.5 2.5H17.5ZM3 16C2.17157 16 1.5 15.3284 1.5 14.5H0.5C0.5 15.8807 1.61929 17 3 17V16ZM16.5 14.5C16.5 15.3284 15.8284 16 15 16V17C16.3807 17 17.5 15.8807 17.5 14.5H16.5Z" fill="#09090B"/>
</svg>
